<svg width="41" height="41" viewBox="0 0 41 41" fill="none" xmlns="http://www.w3.org/2000/svg">
<rect width="41" height="41" rx="10" fill="#1E2538"/>
<path d="M12.064 15.51C12.896 13.8532 14.1724 12.4605 15.7504 11.4875C17.3285 10.5144 19.1461 9.99942 21 10C23.695 10 25.959 10.991 27.69 12.605L24.823 15.473C23.786 14.482 22.468 13.977 21 13.977C18.395 13.977 16.19 15.737 15.405 18.1C15.205 18.7 15.091 19.34 15.091 20C15.091 20.66 15.205 21.3 15.405 21.9C16.191 24.264 18.395 26.023 21 26.023C22.345 26.023 23.49 25.668 24.386 25.068C24.9054 24.726 25.3501 24.2822 25.6932 23.7635C26.0363 23.2448 26.2706 22.6619 26.382 22.05H21V18.182H30.418C30.536 18.836 30.6 19.518 30.6 20.227C30.6 23.273 29.51 25.837 27.618 27.577C25.964 29.105 23.7 30 21 30C19.6866 30.0005 18.386 29.7422 17.1725 29.2399C15.9591 28.7375 14.8565 28.0009 13.9278 27.0722C12.9991 26.1436 12.2625 25.041 11.7601 23.8275C11.2578 22.614 10.9995 21.3134 11 20C11 18.386 11.386 16.86 12.064 15.51Z" fill="white"/>
</svg>
