<svg width="41" height="41" viewBox="0 0 41 41" fill="none" xmlns="http://www.w3.org/2000/svg">
<rect width="41" height="41" rx="10" fill="#1E2538"/>
<path d="M31.46 14C30.69 14.35 29.86 14.58 29 14.69C29.88 14.16 30.56 13.32 30.88 12.31C30.05 12.81 29.13 13.16 28.16 13.36C27.37 12.5 26.26 12 25 12C22.65 12 20.73 13.92 20.73 16.29C20.73 16.63 20.77 16.96 20.84 17.27C17.28 17.09 14.11 15.38 12 12.79C11.63 13.42 11.42 14.16 11.42 14.94C11.42 16.43 12.17 17.75 13.33 18.5C12.62 18.5 11.96 18.3 11.38 18V18.03C11.38 20.11 12.86 21.85 14.82 22.24C14.1907 22.4122 13.5301 22.4362 12.89 22.31C13.1616 23.1625 13.6935 23.9084 14.411 24.4429C15.1285 24.9775 15.9955 25.2737 16.89 25.29C15.3736 26.4904 13.494 27.1393 11.56 27.13C11.22 27.13 10.88 27.11 10.54 27.07C12.44 28.29 14.7 29 17.12 29C25 29 29.33 22.46 29.33 16.79C29.33 16.6 29.33 16.42 29.32 16.23C30.16 15.63 30.88 14.87 31.46 14Z" fill="white"/>
</svg>
