<svg width="41" height="41" viewBox="0 0 41 41" fill="none" xmlns="http://www.w3.org/2000/svg">
<rect width="41" height="41" rx="10" fill="#1E2538"/>
<path d="M30.503 26.3808H28.222C27.359 26.3808 27.099 25.6818 25.552 24.1338C24.2 22.8308 23.629 22.6688 23.287 22.6688C22.814 22.6688 22.685 22.7988 22.685 23.4498V25.5018C22.685 26.0568 22.505 26.3818 21.055 26.3818C19.6483 26.2873 18.2842 25.86 17.075 25.135C15.8658 24.41 14.8461 23.4081 14.1 22.2118C12.3284 20.0069 11.0957 17.4189 10.5 14.6538C10.5 14.3118 10.63 14.0018 11.282 14.0018H13.562C14.148 14.0018 14.359 14.2628 14.589 14.8658C15.696 18.1238 17.585 20.9578 18.352 20.9578C18.646 20.9578 18.774 20.8278 18.774 20.0948V16.7388C18.677 15.2078 17.864 15.0788 17.864 14.5248C17.8743 14.3787 17.9411 14.2423 18.0504 14.1446C18.1596 14.047 18.3026 13.9958 18.449 14.0018H22.033C22.523 14.0018 22.685 14.2458 22.685 14.8318V19.3618C22.685 19.8508 22.895 20.0128 23.043 20.0128C23.337 20.0128 23.563 19.8508 24.102 19.3128C25.2574 17.9038 26.2013 16.334 26.904 14.6528C26.9759 14.451 27.1119 14.2782 27.2912 14.1609C27.4705 14.0435 27.6832 13.988 27.897 14.0028H30.178C30.862 14.0028 31.007 14.3448 30.862 14.8328C30.0324 16.6913 29.0058 18.4553 27.8 20.0948C27.554 20.4698 27.456 20.6648 27.8 21.1048C28.026 21.4468 28.826 22.1148 29.363 22.7498C30.145 23.5298 30.794 24.4318 31.285 25.4198C31.481 26.0558 31.154 26.3808 30.503 26.3808Z" fill="white"/>
</svg>
